<svg width="19" height="15" viewBox="0 0 19 15" fill="none" xmlns="http://www.w3.org/2000/svg">
<path d="M13.775 2.8125C13.2525 2.8125 12.825 2.39062 12.825 1.875C12.825 1.35938 13.2525 0.9375 13.775 0.9375C14.2975 0.9375 14.725 1.35938 14.725 1.875C14.725 2.39062 14.2975 2.8125 13.775 2.8125ZM13.775 3.75C14.82 3.75 15.675 2.90625 15.675 1.875C15.675 0.84375 14.82 0 13.775 0C12.8915 0 12.141 0.6 11.932 1.40625C11.894 1.55625 11.875 1.71563 11.875 1.875C11.875 2.03437 11.894 2.19375 11.932 2.34375C12.141 3.15 12.8915 3.75 13.775 3.75ZM16.587 2.34375C16.6155 2.19375 16.625 2.03437 16.625 1.875C16.625 1.71563 16.6155 1.55625 16.587 1.40625H18.525C18.791 1.40625 19 1.6125 19 1.875C19 2.1375 18.791 2.34375 18.525 2.34375H16.587ZM10.963 2.34375C10.9345 2.19375 10.925 2.03437 10.925 1.875C10.925 1.71563 10.9345 1.55625 10.963 1.40625H0.475C0.209 1.40625 0 1.6125 0 1.875C0 2.1375 0.209 2.34375 0.475 2.34375H10.963ZM5.225 8.4375C4.7025 8.4375 4.275 8.01562 4.275 7.5C4.275 6.98438 4.7025 6.5625 5.225 6.5625C5.7475 6.5625 6.175 6.98438 6.175 7.5C6.175 8.01562 5.7475 8.4375 5.225 8.4375ZM5.225 9.375C6.1085 9.375 6.8495 8.775 7.068 7.96875C7.106 7.81875 7.125 7.65938 7.125 7.5C7.125 7.34062 7.106 7.18125 7.068 7.03125C6.859 6.225 6.1085 5.625 5.225 5.625C4.18 5.625 3.325 6.46875 3.325 7.5C3.325 8.53125 4.18 9.375 5.225 9.375ZM2.413 7.03125C2.3845 7.18125 2.375 7.34062 2.375 7.5C2.375 7.65938 2.3845 7.81875 2.413 7.96875H0.475C0.209 7.96875 0 7.7625 0 7.5C0 7.2375 0.209 7.03125 0.475 7.03125H2.413ZM8.037 7.96875C8.0655 7.81875 8.075 7.65938 8.075 7.5C8.075 7.34062 8.0655 7.18125 8.037 7.03125H18.525C18.791 7.03125 19 7.2375 19 7.5C19 7.7625 18.791 7.96875 18.525 7.96875H8.037ZM11.4 13.125C11.4 12.6094 10.9725 12.1875 10.45 12.1875C9.9275 12.1875 9.5 12.6094 9.5 13.125C9.5 13.6406 9.9275 14.0625 10.45 14.0625C10.9725 14.0625 11.4 13.6406 11.4 13.125ZM12.293 13.5938C12.084 14.4 11.3335 15 10.45 15C9.5665 15 8.816 14.4 8.607 13.5938C8.569 13.4438 8.55 13.2844 8.55 13.125C8.55 12.9656 8.569 12.8062 8.607 12.6562C8.816 11.85 9.5665 11.25 10.45 11.25C11.3335 11.25 12.084 11.85 12.293 12.6562C12.331 12.8062 12.35 12.9656 12.35 13.125C12.35 13.2844 12.331 13.4438 12.293 13.5938ZM7.638 13.5938C7.6095 13.4438 7.6 13.2844 7.6 13.125C7.6 12.9656 7.6095 12.8062 7.638 12.6562H0.475C0.209 12.6562 0 12.8625 0 13.125C0 13.3875 0.209 13.5938 0.475 13.5938H7.638ZM13.262 13.5938C13.2905 13.4438 13.3 13.2844 13.3 13.125C13.3 12.9656 13.2905 12.8062 13.262 12.6562H18.525C18.791 12.6562 19 12.8625 19 13.125C19 13.3875 18.791 13.5938 18.525 13.5938H13.262Z" fill="#23366F"/>
</svg>
