<svg width="17" height="16" viewBox="0 0 17 16" fill="none" xmlns="http://www.w3.org/2000/svg">
<path d="M12.875 1V15H15.5V1H12.875ZM12 1C12 0.516755 12.3917 0.125 12.875 0.125H15.5C15.9833 0.125 16.375 0.516755 16.375 1V15C16.375 15.4833 15.9833 15.875 15.5 15.875H12.875C12.3917 15.875 12 15.4833 12 15V1ZM9.8125 4.5V15H7.1875V4.5H9.8125ZM7.1875 3.625C6.70426 3.625 6.3125 4.01676 6.3125 4.5V15C6.3125 15.4833 6.70426 15.875 7.1875 15.875H9.8125C10.2958 15.875 10.6875 15.4833 10.6875 15V4.5C10.6875 4.01676 10.2958 3.625 9.8125 3.625H7.1875ZM4.125 8V15H1.5V8H4.125ZM1.5 7.125C1.01675 7.125 0.625 7.51674 0.625 8V15C0.625 15.4833 1.01675 15.875 1.5 15.875H4.125C4.60824 15.875 5 15.4833 5 15V8C5 7.51674 4.60824 7.125 4.125 7.125H1.5Z" fill="#23366F"/>
</svg>
