<svg width="21" height="20" viewBox="0 0 21 20" fill="none" xmlns="http://www.w3.org/2000/svg">
<path d="M13.3642 0.954545V1.90909H7.6369V0.954545H13.3642ZM6.68235 0.954545V1.90909H1.43235C1.16508 1.90909 0.955078 2.11909 0.955078 2.38636C0.955078 2.65364 1.16508 2.86364 1.43235 2.86364H19.5687C19.836 2.86364 20.046 2.65364 20.046 2.38636C20.046 2.11909 19.836 1.90909 19.5687 1.90909H14.3187V0.954545C14.3187 0.429545 13.8892 0 13.3642 0H7.6369C7.1119 0 6.68235 0.429545 6.68235 0.954545ZM17.8696 3.81818H16.9055L15.0346 17.3155C14.9678 17.7832 14.5669 18.1364 14.0896 18.1364H6.91144C6.43417 18.1364 6.03326 17.7832 5.96644 17.3155L4.09553 3.81818H3.13144L5.02144 17.4491C5.15508 18.3941 5.9569 19.0909 6.91144 19.0909H14.0896C15.0442 19.0909 15.846 18.3845 15.9796 17.4491L17.8696 3.81818Z" fill="#23366F"/>
</svg>
