<svg width="19" height="19" viewBox="0 0 19 19" fill="none" xmlns="http://www.w3.org/2000/svg">
<path d="M17.65 2.2025C17.85 2.4025 17.85 2.7125 17.65 2.9125L16.42 4.1425L14.66 2.3825L15.89 1.1525C16.09 0.9525 16.4 0.9525 16.6 1.1525L17.65 2.2025ZM7.77 9.2725L13.96 3.0825L15.72 4.8425L9.52 11.0425C9.45 11.1125 9.36 11.1625 9.27 11.1825L7.26 11.6025L7.64 9.5425C7.66 9.4425 7.71 9.3525 7.78 9.2825L7.77 9.2725ZM17.31 0.4425C16.72 -0.1475 15.77 -0.1475 15.19 0.4425L7.06 8.5625C6.85 8.7825 6.7 9.0525 6.65 9.3525L6.14 12.1525C6.08 12.5025 6.39 12.8025 6.73 12.7325L9.47 12.1625C9.76 12.1025 10.02 11.9625 10.22 11.7525L18.36 3.6125C18.95 3.0225 18.95 2.0725 18.36 1.4925L17.31 0.4425ZM4.5 1.3825C2.57 1.3825 1 2.9525 1 4.8825V13.8825C1 15.8125 2.57 17.3825 4.5 17.3825H13.5C15.43 17.3825 17 15.8125 17 13.8825V7.8825C17 7.6025 17.22 7.3825 17.5 7.3825C17.78 7.3825 18 7.6025 18 7.8825V13.8825C18 16.3725 15.99 18.3825 13.5 18.3825H4.5C2.01 18.3825 0 16.3725 0 13.8825V4.8825C0 2.3925 2.01 0.3825 4.5 0.3825H11.5C11.78 0.3825 12 0.6025 12 0.8825C12 1.1625 11.78 1.3825 11.5 1.3825H4.5Z" fill="#23366F"/>
</svg>
