<svg width="18" height="14" viewBox="0 0 18 14" fill="none" xmlns="http://www.w3.org/2000/svg">
<path d="M17.1201 9.47474L14.731 10.069C14.7834 10.2422 14.8102 10.453 14.7638 10.6835C14.7132 10.9354 14.5816 11.1783 14.3603 11.3985C14.1388 11.6187 13.8946 11.7496 13.6415 11.8C13.3916 11.8496 13.1649 11.8148 12.9835 11.7547C12.8747 11.7186 12.7789 11.6725 12.6989 11.6263C12.6286 11.7742 12.5271 11.9168 12.3922 12.051C12.1708 12.2713 11.9266 12.4022 11.6734 12.4526C11.4236 12.5022 11.1969 12.4674 11.0155 12.4072C10.8361 12.3477 10.6921 12.2608 10.5953 12.192C10.546 12.157 10.5063 12.1248 10.4779 12.1002C10.4635 12.0878 10.4518 12.0772 10.4428 12.0689L10.4314 12.0581L10.4272 12.0541L10.4255 12.0525L10.4248 12.0518C10.4248 12.0518 10.4241 12.051 10.7522 11.7248L10.4241 12.051L10.377 12.0041C10.3085 12.1337 10.2153 12.2587 10.0962 12.3773C9.87474 12.5975 9.63065 12.7284 9.37738 12.7788C9.12754 12.8285 8.9008 12.7936 8.71943 12.7335C8.6106 12.6975 8.51486 12.6512 8.4348 12.6052C8.36457 12.7531 8.26298 12.8957 8.12809 13.0299C7.90673 13.2501 7.66254 13.381 7.40936 13.4313C7.15952 13.4811 6.93278 13.4462 6.75141 13.3861C6.57197 13.3266 6.42804 13.2397 6.33123 13.1709C6.28191 13.1358 6.24232 13.1037 6.21376 13.0791C6.19941 13.0667 6.18769 13.0561 6.17873 13.0478L6.16732 13.037L6.16318 13.0329L6.1615 13.0313L6.16076 13.0305C6.16076 13.0305 6.16009 13.0299 6.48809 12.7036L6.16009 13.0299L4.52006 11.3985C3.9044 10.786 3.21834 10.2535 2.53933 9.87129C1.85529 9.48618 1.2071 9.26968 0.660609 9.25094C0.368603 9.24098 0.120117 9.00445 0.120117 8.69593V4.44307C0.120117 4.17287 0.30561 4.01145 0.411335 3.94669C0.523183 3.87818 0.707423 3.81391 0.909346 3.86989C1.29699 3.97736 2.57651 4.00056 4.24468 3.18841C4.4549 2.97409 4.65278 2.74181 4.86296 2.49472L4.8687 2.48797C5.09042 2.22731 5.32638 1.94991 5.58608 1.69158C6.11864 1.16182 6.7708 0.691655 7.70912 0.504969C8.69725 0.308389 9.78967 0.727721 10.6117 1.15223C11.2484 1.48101 11.8474 1.88682 12.138 2.08365C12.2187 2.13834 12.2755 2.1769 12.3028 2.19319C13.0886 2.66219 14.0162 3.05883 14.8557 3.3821C15.229 3.52586 15.599 3.6599 15.927 3.77873C16.3076 3.91662 16.6317 4.03404 16.839 4.12243L17.1201 4.24229V9.47474ZM3.77349 4.39138C2.6347 4.80684 1.66994 4.89125 1.04786 4.82786V8.35955C1.69067 8.44777 2.35752 8.70848 2.99626 9.06812C3.75867 9.49726 4.51038 10.0837 5.17607 10.7459L6.81311 12.3744L6.81561 12.3767C6.81709 12.378 6.81904 12.3796 6.82136 12.3817C6.8312 12.3902 6.84799 12.4039 6.87044 12.4199C6.91711 12.4531 6.97824 12.4885 7.04476 12.5106C7.10943 12.532 7.16973 12.5379 7.22734 12.5265C7.28161 12.5157 7.36548 12.4834 7.47208 12.3773C7.57868 12.2713 7.61115 12.1879 7.622 12.1339C7.63351 12.0765 7.62757 12.0166 7.60605 11.9523C7.58387 11.886 7.54825 11.8253 7.51494 11.7789C7.49889 11.7565 7.48507 11.7398 7.47644 11.73C7.47291 11.7259 7.46911 11.7218 7.46911 11.7218L6.16009 10.4197C5.97893 10.2394 5.97893 9.94725 6.16009 9.7671C6.34124 9.58687 6.63494 9.58687 6.81607 9.7671L8.78121 11.7218C8.78121 11.7218 8.7853 11.7256 8.78938 11.7291C8.79931 11.7376 8.8161 11.7514 8.83846 11.7673C8.88521 11.8005 8.94626 11.8359 9.01278 11.858C9.07744 11.8794 9.13774 11.8854 9.19545 11.8739C9.24972 11.8631 9.3335 11.8308 9.44019 11.7248C9.54679 11.6187 9.57916 11.5353 9.59002 11.4813C9.60161 11.4239 9.59568 11.364 9.57406 11.2997C9.55189 11.2334 9.51626 11.1727 9.48296 11.1263C9.46691 11.104 9.45308 11.0873 9.44455 11.0775C9.44093 11.0733 9.43722 11.0693 9.43722 11.0693L7.80013 9.44078C7.61894 9.26063 7.61894 8.96845 7.80013 8.78822C7.98122 8.60798 8.27495 8.60798 8.45613 8.78822L11.0772 11.3955C11.0772 11.3955 11.0814 11.3993 11.0854 11.4028C11.0953 11.4114 11.1121 11.4251 11.1345 11.4411C11.1812 11.4742 11.2423 11.5097 11.3088 11.5317C11.3735 11.5531 11.4338 11.559 11.4914 11.5476C11.5457 11.5368 11.6296 11.5045 11.7362 11.3985C11.8428 11.2924 11.8752 11.209 11.8861 11.155C11.8976 11.0977 11.8916 11.0377 11.8701 10.9734C11.848 10.9072 11.8123 10.8465 11.7789 10.8C11.763 10.7776 11.7491 10.7609 11.7405 10.7512C11.737 10.7471 11.7332 10.7429 11.7332 10.7429L9.76814 8.78822C9.58696 8.60798 9.58696 8.3159 9.76814 8.13566C9.94933 7.95542 10.243 7.95542 10.4241 8.13566L13.0452 10.7429C13.0452 10.7429 13.0494 10.7467 13.0535 10.7502C13.0634 10.7588 13.0802 10.7726 13.1025 10.7885C13.1493 10.8217 13.2103 10.8571 13.2769 10.8792C13.3415 10.9006 13.4018 10.9065 13.4595 10.895C13.5137 10.8842 13.5976 10.8519 13.7042 10.7459C13.8109 10.6399 13.8432 10.5564 13.8541 10.5024C13.8657 10.4451 13.8597 10.3851 13.8381 10.3208C13.816 10.2547 13.7803 10.1938 13.747 10.1474C13.731 10.1251 13.7172 10.1084 13.7086 10.0986C13.705 10.0945 13.7013 10.0904 13.7013 10.0904L8.12809 4.54655C7.91777 4.33731 7.74845 4.26567 7.62247 4.24565C7.49555 4.22549 7.35843 4.24909 7.19775 4.32605C6.88046 4.47804 6.58456 4.77429 6.26846 5.09084C6.23261 5.12673 6.19651 5.16292 6.16009 5.1991L5.83208 4.87284C6.16009 5.1991 6.16009 5.1991 6.16009 5.1991L6.15941 5.19975L6.15867 5.20048L6.15699 5.20215L6.15285 5.20621L6.14145 5.217C6.13249 5.22531 6.12075 5.23592 6.10641 5.24829C6.07785 5.27293 6.03826 5.30504 5.98895 5.34011C5.89214 5.40887 5.7482 5.4958 5.56876 5.55533C5.38739 5.6154 5.16067 5.65029 4.91084 5.60064C4.65759 5.55025 4.41345 5.41939 4.19205 5.1991C3.97065 4.97889 3.83909 4.73601 3.78844 4.4841C3.78215 4.45281 3.7772 4.42189 3.77349 4.39138ZM5.50701 4.54362C5.53933 4.51145 5.57352 4.47693 5.60949 4.44061C5.90573 4.14155 6.32214 3.72116 6.79529 3.49455C7.07742 3.35942 7.40769 3.27698 7.76868 3.33432C8.13059 3.3918 8.46968 3.58119 8.78409 3.89399L14.1745 9.25602L16.1924 8.75426V4.85901C16.0379 4.8006 15.8567 4.73522 15.6519 4.66128C15.3297 4.54499 14.9487 4.40754 14.5208 4.24273C13.6656 3.91344 12.6798 3.49437 11.8255 2.98453C11.7463 2.93723 11.6426 2.86702 11.5156 2.78094C11.2061 2.57128 10.7579 2.26749 10.1842 1.9713C9.38369 1.55789 8.54297 1.28021 7.89105 1.40992C7.1894 1.54951 6.69352 1.89506 6.24209 2.34415C6.01201 2.57301 5.79881 2.82325 5.57118 3.09084L5.56543 3.0976C5.34457 3.35725 5.10956 3.63354 4.85105 3.89102C4.85105 3.89102 4.84726 3.89513 4.84369 3.89922C4.83513 3.90905 4.8213 3.92575 4.80527 3.94807C4.77192 3.99451 4.7363 4.05526 4.71412 4.12148C4.69257 4.18577 4.68663 4.24573 4.69816 4.30312C4.70902 4.35709 4.74145 4.4405 4.84806 4.54655C4.95467 4.6526 5.03852 4.68487 5.09279 4.69567C5.15046 4.70714 5.21075 4.70122 5.27539 4.67979C5.34194 4.65772 5.40301 4.62229 5.44971 4.58912C5.47215 4.57317 5.48893 4.55941 5.4988 4.5509C5.50289 4.54738 5.50565 4.54488 5.50701 4.54362Z" fill="#23366F"/>
</svg>
