<svg width="19" height="20" viewBox="0 0 19 20" fill="none" xmlns="http://www.w3.org/2000/svg">
<path fill="currentColor" d="M8.06827 0.454858C7.801 0.454858 7.591 0.664858 7.591 0.932131C7.591 1.1994 7.801 1.4094 8.06827 1.4094H14.5878L8.28782 3.12759C7.86782 3.24213 7.58145 3.6144 7.58145 4.04395V7.96713L8.25918 8.64486C8.36418 8.74986 8.45963 8.87395 8.536 8.99804V4.04395L17.1269 1.70531V15.9567L8.536 18.2953V10.993C8.45963 11.1171 8.36418 11.2412 8.25918 11.3462L7.58145 12.0239V18.2953C7.58145 18.9253 8.18282 19.3835 8.78418 19.2117L17.3751 16.873C17.7951 16.7585 18.0815 16.3862 18.0815 15.9567V1.07531C18.0815 1.07531 18.0815 1.02759 18.0815 0.998949C18.0815 0.970312 18.0815 0.951222 18.0815 0.922585C18.0815 0.655312 17.8715 0.445312 17.6042 0.445312H8.06827V0.454858ZM4.87054 7.27986C5.06145 7.08895 5.35736 7.08895 5.54827 7.27986L7.60054 9.33213C7.97282 9.7044 7.97282 10.3058 7.60054 10.678L5.54827 12.7303C5.35736 12.9212 5.06145 12.9212 4.87054 12.7303C4.67963 12.5394 4.67963 12.2435 4.87054 12.0526L6.44554 10.4776H1.38645C1.11918 10.4776 0.90918 10.2676 0.90918 10.0003C0.90918 9.73304 1.11918 9.52304 1.38645 9.52304H6.436L4.861 7.94804C4.67009 7.75713 4.67009 7.46122 4.861 7.27031L4.87054 7.27986Z" />
</svg>
