<svg width="17" height="16" viewBox="0 0 17 16" fill="none" xmlns="http://www.w3.org/2000/svg">
<path d="M1.5 1V6.25H6.75V1H1.5ZM0.625 1C0.625 0.516755 1.01675 0.125 1.5 0.125H6.75C7.23326 0.125 7.625 0.516755 7.625 1V6.25C7.625 6.73326 7.23326 7.125 6.75 7.125H1.5C1.01675 7.125 0.625 6.73326 0.625 6.25V1ZM10.25 1V6.25H15.5V1H10.25ZM9.375 1C9.375 0.516755 9.76674 0.125 10.25 0.125H15.5C15.9833 0.125 16.375 0.516755 16.375 1V6.25C16.375 6.73326 15.9833 7.125 15.5 7.125H10.25C9.76674 7.125 9.375 6.73326 9.375 6.25V1ZM6.75 9.75V15H1.5V9.75H6.75ZM1.5 8.875C1.01675 8.875 0.625 9.26674 0.625 9.75V15C0.625 15.4833 1.01675 15.875 1.5 15.875H6.75C7.23326 15.875 7.625 15.4833 7.625 15V9.75C7.625 9.26674 7.23326 8.875 6.75 8.875H1.5ZM10.25 9.75V15H15.5V9.75H10.25ZM9.375 9.75C9.375 9.26674 9.76674 8.875 10.25 8.875H15.5C15.9833 8.875 16.375 9.26674 16.375 9.75V15C16.375 15.4833 15.9833 15.875 15.5 15.875H10.25C9.76674 15.875 9.375 15.4833 9.375 15V9.75Z" fill="#23366F"/>
</svg>
