<svg width="19" height="17" viewBox="0 0 19 17" fill="none" xmlns="http://www.w3.org/2000/svg">
<path d="M9.5 1.54411L11.4796 5.53927C11.6791 5.94192 12.0638 6.21938 12.5069 6.2835L16.9263 6.92308L13.7308 10.0256C13.4086 10.3383 13.2608 10.79 13.3371 11.2334L14.0923 15.6186L10.1337 13.5457C9.73687 13.3379 9.26314 13.3379 8.86633 13.5457L4.90771 15.6186L5.66283 11.2334C5.73919 10.79 5.59135 10.3383 5.26923 10.0256L2.07373 6.92308L6.49308 6.2835C6.93617 6.21938 7.32088 5.94192 7.52038 5.53927L9.5 1.54411ZM9.93899 0.459312C9.75944 0.0968959 9.24056 0.0968959 9.06101 0.459312L6.73636 5.15079C6.66505 5.2947 6.52721 5.39445 6.36775 5.41753L1.1697 6.16984C0.76815 6.22796 0.607815 6.71946 0.898376 7.00156L4.65972 10.6534C4.77511 10.7654 4.82776 10.9268 4.80052 11.0849L3.91258 16.2414C3.84399 16.6397 4.26376 16.9435 4.62291 16.7554L9.27215 14.3209C9.41478 14.2462 9.58523 14.2462 9.72785 14.3209L14.3771 16.7554C14.7363 16.9435 15.156 16.6397 15.0874 16.2414L14.1995 11.0849C14.1722 10.9268 14.2249 10.7654 14.3402 10.6534L18.1016 7.00156C18.3922 6.71946 18.2319 6.22796 17.8303 6.16984L12.6322 5.41753C12.4728 5.39445 12.3349 5.2947 12.2637 5.15079L9.93899 0.459312Z" fill="#23366F"/>
</svg>
