<svg width="17" height="15" viewBox="0 0 17 15" fill="none" xmlns="http://www.w3.org/2000/svg">
<path d="M9.18784 1.07005C9.0194 1.2433 9.02334 1.52028 9.19659 1.68871L10.6746 3.12555H4.4265C2.32699 3.12555 0.625 4.82754 0.625 6.92705C0.625 8.38235 1.4558 9.7099 2.76465 10.346L3.12179 10.5196C3.3391 10.6253 3.6009 10.5348 3.70653 10.3174C3.81215 10.1002 3.72162 9.83835 3.5043 9.73274L3.14716 9.55914C2.13957 9.06931 1.5 8.0474 1.5 6.92705C1.5 5.31079 2.81023 4.00055 4.4265 4.00055H10.6741L9.19659 5.4369C9.02334 5.60532 9.0194 5.8823 9.18784 6.05555C9.35628 6.2288 9.6333 6.23274 9.80655 6.0643L11.7344 4.19021C12.0878 3.8466 12.0878 3.279 11.7344 2.9354L9.80655 1.0613C9.6333 0.892875 9.35628 0.896795 9.18784 1.07005ZM7.81146 13.9299C7.9799 13.7567 7.97596 13.4798 7.80271 13.3113L6.32465 11.8745H12.5729C14.6723 11.8745 16.3744 10.1725 16.3744 8.07295C16.3744 6.61774 15.5436 5.29014 14.2347 4.65396L13.8776 4.48036C13.6602 4.37474 13.3984 4.46527 13.2928 4.68259C13.1872 4.8999 13.2777 5.16169 13.495 5.26732L13.8522 5.44092C14.8598 5.93069 15.4994 6.95269 15.4994 8.07295C15.4994 9.68925 14.1891 10.9995 12.5729 10.9995H6.32517L7.80271 9.56316C7.97596 9.39472 7.9799 9.1177 7.81146 8.94445C7.64303 8.7712 7.36609 8.76726 7.19284 8.9357L5.26495 10.8098C4.91149 11.1534 4.91149 11.721 5.26495 12.0646L7.19284 13.9387C7.36609 14.1071 7.64303 14.1032 7.81146 13.9299Z" fill="#23366F"/>
</svg>
