<svg width="21" height="20" viewBox="0 0 21 20" fill="none" xmlns="http://www.w3.org/2000/svg">
<path d="M13.3632 0.954545V1.90909H7.63592V0.954545H13.3632ZM6.68137 0.954545V1.90909H1.43137C1.1641 1.90909 0.954102 2.11909 0.954102 2.38636C0.954102 2.65364 1.1641 2.86364 1.43137 2.86364H19.5677C19.835 2.86364 20.045 2.65364 20.045 2.38636C20.045 2.11909 19.835 1.90909 19.5677 1.90909H14.3177V0.954545C14.3177 0.429545 13.8882 0 13.3632 0H7.63592C7.11092 0 6.68137 0.429545 6.68137 0.954545ZM17.8686 3.81818H16.9046L15.0336 17.3155C14.9668 17.7832 14.5659 18.1364 14.0886 18.1364H6.91047C6.43319 18.1364 6.03228 17.7832 5.96547 17.3155L4.09456 3.81818H3.13047L5.02047 17.4491C5.1541 18.3941 5.95592 19.0909 6.91047 19.0909H14.0886C15.0432 19.0909 15.845 18.3845 15.9786 17.4491L17.8686 3.81818Z" fill="#23366F"/>
</svg>
