<svg width="13" height="19" viewBox="0 0 13 19" fill="none" xmlns="http://www.w3.org/2000/svg">
<path d="M8.56631 8.98226C9.9405 8.24455 10.875 6.79391 10.875 5.125C10.875 2.70876 8.91623 0.75 6.5 0.75C4.08376 0.75 2.125 2.70876 2.125 5.125C2.125 6.79391 3.05947 8.24455 4.43373 8.98226C2.06765 9.83005 0.375 12.0924 0.375 14.75V17.375C0.375 17.8583 0.766755 18.25 1.25 18.25H11.75C12.2333 18.25 12.625 17.8583 12.625 17.375V14.75C12.625 12.0924 10.9323 9.83005 8.56631 8.98226ZM10 5.125C10 7.058 8.43296 8.625 6.5 8.625C4.567 8.625 3 7.058 3 5.125C3 3.192 4.567 1.625 6.5 1.625C8.43296 1.625 10 3.192 10 5.125ZM6.5 9.5C9.39949 9.5 11.75 11.8505 11.75 14.75V17.375H1.25V14.75C1.25 11.8505 3.6005 9.5 6.5 9.5Z" fill="#23366F"/>
</svg>
