<svg width="21" height="21" viewBox="0 0 21 21" fill="none" xmlns="http://www.w3.org/2000/svg">
<path d="M10.8432 1.95216L1.95637 18.1031H19.73L10.8432 1.95216ZM10.0032 1.49398C10.3659 0.835341 11.3109 0.835341 11.6736 1.49398L20.5605 17.6449C20.9136 18.2844 20.4459 19.0576 19.7205 19.0576H1.95637C1.23092 19.0576 0.772738 18.2749 1.11637 17.6449L10.0032 1.49398ZM10.8432 5.2167C11.1105 5.2167 11.3205 5.4267 11.3205 5.69398V11.8985C11.3205 12.1658 11.1105 12.3758 10.8432 12.3758C10.5759 12.3758 10.3659 12.1658 10.3659 11.8985V5.69398C10.3659 5.4267 10.5759 5.2167 10.8432 5.2167ZM10.8432 14.2849C11.1105 14.2849 11.3205 14.4949 11.3205 14.7622V16.194C11.3205 16.4613 11.1105 16.6712 10.8432 16.6712C10.5759 16.6712 10.3659 16.4613 10.3659 16.194V14.7622C10.3659 14.4949 10.5759 14.2849 10.8432 14.2849Z" fill="#23366F"/>
</svg>
